<?xml version="1.0" standalone="no"?>
<!DOCTYPE svg PUBLIC "-//W3C//DTD SVG 20010904//EN"
 "http://www.w3.org/TR/2001/REC-SVG-20010904/DTD/svg10.dtd">
<svg version="1.0" xmlns="http://www.w3.org/2000/svg"
 width="512.000000pt" height="512.000000pt" viewBox="0 0 512.000000 512.000000"
 preserveAspectRatio="xMidYMid meet">
<metadata>
Created by potrace 1.14, written by Peter Selinger 2001-2017
</metadata>
<g transform="translate(0.000000,512.000000) scale(0.100000,-0.100000)"
fill="#000000" stroke="none">
<path d="M2398 5115 c-2 -1 -28 -6 -58 -9 -74 -9 -226 -51 -303 -83 -339 -146
-619 -471 -706 -822 -28 -112 -32 -143 -36 -286 -7 -303 75 -556 254 -780 201
-252 465 -415 746 -459 17 -3 46 -8 65 -11 19 -4 86 -8 148 -9 337 -7 640 115
881 354 162 161 262 327 320 534 71 249 62 523 -25 768 -72 205 -239 426 -430
571 -127 96 -306 176 -474 213 -64 14 -370 29 -382 19z"/>
<path d="M1447 2644 c-1 -1 -24 -5 -52 -8 -188 -25 -378 -115 -511 -242 -177
-170 -328 -472 -390 -779 -12 -57 -34 -185 -40 -220 -3 -22 -7 -51 -9 -65 -11
-63 -20 -240 -20 -395 0 -168 6 -239 24 -303 5 -18 10 -33 10 -35 0 -1 3 -11
6 -22 98 -304 353 -512 690 -564 22 -3 661 -6 1420 -6 1283 0 1385 1 1452 18
290 70 506 249 603 499 51 133 63 232 57 488 -3 124 -8 239 -11 255 -2 17 -10
68 -16 115 -57 435 -200 778 -415 995 -163 165 -367 254 -619 271 -106 8 -139
-5 -337 -131 -181 -116 -251 -152 -377 -195 -122 -41 -234 -60 -362 -61 -151
-1 -230 15 -400 78 -113 42 -154 64 -323 172 -188 121 -218 134 -305 136 -40
0 -74 0 -75 -1z"/>
</g>
</svg>
